<svg version="1.2" xmlns="http://www.w3.org/2000/svg" viewBox="0 0 4100 2100" width="650" height="333"><defs><linearGradient id="P" gradientUnits="userSpaceOnUse"/><linearGradient id="g1" x1="1930.1" y1="1421" x2="1513.6" y2="1517.2" href="#P"><stop stop-color="#60b0e2"/><stop offset="1" stop-color="#916eb0"/></linearGradient><linearGradient id="g2" x1="1865.5" y1="1486.3" x2="2067.2" y2="960.9" href="#P"><stop stop-color="#60b0e2"/><stop offset="1" stop-color="#916eb0"/></linearGradient></defs><style>.a{fill:#f0f0f0}.b{fill:#3694ff}.c{fill:#442f86}.d{fill:url(#g1)}.e{fill:#9186dd}.f{fill:#bbd1f5}.g{fill:url(#g2)}</style><path class="a" d="m1790.4 858.1h-19.1c-13 0-23.6 10.6-23.6 23.6v38.4c0 13.1-10.6 23.7-23.7 23.7h-116.3c-13 0-23.6-10.6-23.6-23.7v-38.4c0-13-10.6-23.6-23.7-23.6h-212c-13 0-23.6-10.6-23.6-23.7v-76.1c0-4.8 1.4-9.5 4.1-13.5l201-290.9c4.4-6.4 11.7-10.2 19.4-10.2h116.3c18.9 0 30.2 21.1 19.7 36.8l-139.6 210c-10.5 15.8 0.8 36.8 19.7 36.8 13.1 0 23.7-10.6 23.7-23.6v-29.1c0-13.1 10.6-23.7 23.7-23.7h111.2c13.1 0 23.7 10.6 23.7 23.7v29.1c0 13 10.6 23.6 23.6 23.6h19.1c13.1 0 23.7 10.6 23.7 23.7v83.4c0 13.1-10.6 23.7-23.7 23.7z"/><path fill-rule="evenodd" class="a" d="m1946.6 924.1q-51.1-31-80-90-28.9-58.9-28.9-140.3 0-81.5 28.9-140.4 28.9-59 80-90 51.1-31.1 117.5-31.1 66.5 0 117.5 31.1 51.1 31 80 90 29 58.9 29 140.4 0 81.4-29 140.3-28.9 59-80 90-51 31.1-117.5 31.1-66.4 0-117.5-31.1zm174.7-230.3q0-126.5-57.2-126.5-57.1 0-57.1 126.5 0 126.4 57.1 126.4 57.2 0 57.2-126.4z"/><path class="a" d="m2793.4 858.1h-19.1c-13.1 0-23.7 10.6-23.7 23.6v38.4c0 13.1-10.6 23.7-23.7 23.7h-116.2c-13.1 0-23.7-10.6-23.7-23.7v-38.4c0-13-10.6-23.6-23.6-23.6h-212c-13.1 0-23.7-10.6-23.7-23.7v-76.1c0-4.8 1.5-9.5 4.2-13.5l200.9-290.9c4.4-6.4 11.7-10.2 19.5-10.2h116.3c18.9 0 30.2 21.1 19.7 36.8l-139.7 210c-10.4 15.8 0.9 36.8 19.8 36.8 13 0 23.6-10.6 23.6-23.6v-29.1c0-13.1 10.6-23.7 23.7-23.7h111.2c13.1 0 23.7 10.6 23.7 23.7v29.1c0 13 10.6 23.6 23.7 23.6h19.1c13.1 0 23.7 10.6 23.7 23.7v83.4c0 13.1-10.6 23.7-23.7 23.7z"/><path class="b" d="m1749.6 855.5h-19.1c-13 0-23.7 10.6-23.7 23.7v38.4c0 13-10.6 23.6-23.6 23.6h-116.3c-13 0-23.6-10.6-23.6-23.6v-38.4c0-13.1-10.6-23.7-23.7-23.7h-212c-13.1 0-23.7-10.6-23.7-23.7v-76.1c0-4.8 1.5-9.5 4.2-13.4l200.9-290.9c4.5-6.4 11.8-10.2 19.5-10.2h116.3c18.9 0 30.2 21 19.7 36.8l-139.6 210c-10.5 15.7 0.8 36.8 19.7 36.8 13.1 0 23.7-10.6 23.7-23.7v-29.1c0-13.1 10.6-23.7 23.6-23.7h111.3c13 0 23.6 10.6 23.6 23.7v29.1c0 13.1 10.7 23.7 23.7 23.7h19.1c13.1 0 23.7 10.6 23.7 23.7v83.3c0 13.1-10.6 23.7-23.7 23.7z"/><path fill-rule="evenodd" class="b" d="m1905.8 921.6q-51.1-31.1-80-90-28.9-59-28.9-140.4 0-81.4 28.9-140.4 28.9-58.9 80-90 51.1-31.1 117.5-31.1 66.4 0 117.5 31.1 51.1 31.1 80 90 29 59 29 140.4 0 81.4-29 140.4-28.9 58.9-80 90-51.1 31.1-117.5 31.1-66.4 0-117.5-31.1zm174.7-230.4q0-126.4-57.2-126.4-57.1 0-57.1 126.4 0 126.4 57.1 126.4 57.2 0 57.2-126.4z"/><path class="b" d="m2752.6 855.5h-19.1c-13.1 0-23.7 10.6-23.7 23.7v38.4c0 13-10.6 23.6-23.7 23.6h-116.2c-13.1 0-23.7-10.6-23.7-23.6v-38.4c0-13.1-10.6-23.7-23.7-23.7h-211.9c-13.1 0-23.7-10.6-23.7-23.7v-76.1c0-4.8 1.5-9.5 4.2-13.4l200.9-290.9c4.4-6.4 11.7-10.2 19.5-10.2h116.3c18.9 0 30.1 21 19.7 36.8l-139.7 210c-10.4 15.7 0.8 36.8 19.7 36.8 13.1 0 23.7-10.6 23.7-23.7v-29.1c0-13.1 10.6-23.7 23.7-23.7h111.2c13.1 0 23.7 10.6 23.7 23.7v29.1c0 13.1 10.6 23.7 23.7 23.7h19.1c13 0 23.6 10.6 23.6 23.7v83.3c0 13.1-10.6 23.7-23.6 23.7z"/><path class="c" d="m926.3 1248.8c73.2 0 133.8-23.5 183.7-71 59.6-56.7 94.1-137.3 127.4-215.3 37.7-88.1 73.4-171.3 138.4-192.2 28.7-9.1 54.7-6 79.7 9.5 109.8 68.3 151.4 340.2 151.8 343l37.1-5.5c-1.8-11.9-44.7-292-169.1-369.4-34.4-21.4-71.7-25.8-110.9-13.3-81.4 26.1-120.3 117-161.5 213.2-63.9 149.5-130.1 304.1-360.4 253.6l-111.4-36.1c-9.8-3.1-20.4 2.3-23.6 12.1-3.2 9.9 2.3 20.4 12.1 23.6l114 36.8c32.9 7.3 63.8 11 92.7 11z"/><path class="d" d="m1560 1434l-39.9-193.5c-13.8-66.8 25.1-133.3 90.1-153.9 72.8-23.1 150 19.5 169.3 93.3l49 187.7z"/><path class="e" d="m1560.1 1439.1c4.3 17.8 68.6 17.6 143.7-0.5 75.1-18.1 132.5-47.2 128.2-65-4.3-17.8-68.6-17.6-143.7 0.5-75.1 18.1-132.5 47.2-128.2 65z"/><path class="c" d="m1722.2 1386.6c-1.1 6 9.7 13 24 15.5 14.3 2.6 26.8-0.2 27.9-6.2 1.1-6-9.7-13-24-15.5-14.3-2.6-26.8 0.2-27.9 6.2z"/><path class="c" d="m1627.6 1415.6c-1.1 6 9.6 13 24 15.5 14.3 2.6 26.8-0.2 27.9-6.2 1.1-6-9.7-12.9-24-15.5-14.3-2.6-26.8 0.2-27.9 6.2z"/><path class="f" d="m1680.2 1109.2c0 0 57.9 21.1 76.4 81.6 18.4 60.5 34.2 138.2 34.2 138.2l-52.7 1.3z"/><path class="c" d="m1629.3 1040.7l-28 48.8 36.8-8.5z"/><path fill-rule="evenodd" class="c" d="m3318.8 989.6l-15 33.1c-2.5-1.2-64.1-29.7-120.6-130.3-16.4-29.1-41.4-63.1-68-60-19.1 2.3-69.7 29.4-127.2 231.8-62.7 220.8-196.9 365-398.7 428.7-130.6 41.2-292.2-46.8-299-50.5l9-16.3-0.2 0.4 8.8-15.9c2 1.1 155 84.1 270.4 47.7 189.5-59.9 315.6-195.8 374.7-404 47.4-166.7 99-251 157.9-258 37.3-4.4 72.3 21.9 104 78.3 50.7 90.3 103.3 114.7 103.9 115zm-1010.9 420.9l-8.6 15.6 8.6-15.5q0-0.1 0-0.1z"/><path class="c" d="m1970.6 1278.3l95.7 69.4c8 5.8 9.8 17 4 25-5.8 8-17 9.8-25 4l-95.7-69.4c-8-5.8-9.8-17-4-25 5.8-8 17-9.8 25-4z"/><path class="c" d="m2044.4 1172l95.8 69.4c8 5.8 9.8 17 4 25-5.8 8-17 9.8-25 4l-95.8-69.4c-8-5.8-9.8-17-4-25 5.8-8 17-9.8 25-4z"/><path class="c" d="m2379.4 1448.1l-59.4 8.9 16.5-33.2 56.1 22.2z"/><path class="g" d="m1977.8 1377.6l165.7 107.7c57.2 37.1 133.2 25.1 176.2-27.9 48-59.3 36.5-146.8-25.3-191.7l-156.9-114z"/><path class="f" d="m2033.4 1385.5l38.1-51.6 195.7 140.9c0 0-46.9 23.3-100.9-2.9-54-26.2-132.9-86.4-132.9-86.4z"/><path class="b" d="m1451.2 1713.1c21.6 0 32.1-10.8 32.1-23.4 0-27.8-44-18.2-44-32.1 0-4.8 4-8.7 14.4-8.7 6.7 0 13.9 2 20.9 6l5.4-13.3c-7-4.4-16.7-6.7-26.2-6.7-21.5 0-31.9 10.7-31.9 23.5 0 28.1 44 18.4 44 32.6 0 4.6-4.2 8-14.6 8-9.1 0-18.6-3.2-25-7.8l-5.9 13.1c6.7 5.2 18.8 8.8 30.8 8.8z"/><path fill-rule="evenodd" class="b" d="m1489.7 1682.7c0-17.5 13.5-29.9 32-29.9 18.5 0 31.9 12.4 31.9 29.9 0 17.5-13.4 30-31.9 30-18.5 0-32-12.5-32-30zm46.8 0c0-10-6.4-16.1-14.8-16.1-8.4 0-14.9 6.1-14.9 16.1 0 10.1 6.5 16.1 14.9 16.1 8.4 0 14.8-6 14.8-16.1z"/><path class="b" d="m1580.9 1661.3v-7.6h-16.1v58.1h16.8v-27.4c0-11.2 6.2-16.2 15.5-16.2 1.3 0 2.4 0.1 3.8 0.2v-15.6c-9 0-15.9 2.9-20 8.5z"/><path class="b" d="m1627 1661.3v-7.6h-16.1v58.1h16.9v-27.4c0-11.2 6.1-16.2 15.4-16.2 1.3 0 2.4 0.1 3.8 0.2v-15.6c-9 0-15.9 2.9-20 8.5z"/><path class="b" d="m1700.6 1653.7l-16.5 39.4-16.3-39.4h-17.4l25.2 58.5-0.2 0.6c-2.3 5.1-4.9 7.2-9.5 7.2-3.4 0-6.9-1.4-9.5-3.7l-6.2 12c3.8 3.4 10.3 5.3 16.2 5.3 10.5 0 18.5-4.2 24.1-18.2l26.3-61.7z"/><path class="b" d="m1726.7 1691.7c-5.9 0-10.5 4.1-10.5 10.4 0 4.4 2.3 7.7 5.9 9.1l-4.8 17.2h10.7l6.1-15.5c2.5-6 3-8 3-10.8 0-6.2-4.4-10.4-10.4-10.4z"/><path fill-rule="evenodd" class="b" d="m1845.8 1663.6c0 16.9-12.6 27.3-32.8 27.3h-15.2v20.9h-17.5v-75.6h32.7c20.2 0 32.8 10.5 32.8 27.4zm-17.7 0c0-8.3-5.4-13.2-16.1-13.2h-14.2v26.3h14.2c10.7 0 16.1-4.9 16.1-13.1z"/><path fill-rule="evenodd" class="b" d="m1907.9 1678.6v33.2h-15.7v-7.2c-3.2 5.2-9.2 8.1-17.7 8.1-13.7 0-21.8-7.6-21.8-17.7 0-10.2 7.3-17.3 25-17.3h13.4c0-7.3-4.3-11.5-13.4-11.5-6.2 0-12.5 2.1-16.8 5.4l-6-11.8c6.4-4.5 15.8-7 25.1-7 17.7 0 27.9 8.2 27.9 25.8zm-16.8 14.8v-5.9h-11.6c-7.9 0-10.3 2.9-10.3 6.8 0 4.2 3.5 7 9.5 7 5.6 0 10.4-2.6 12.4-7.9z"/><path fill-rule="evenodd" class="b" d="m1983.8 1653.7v48.4c0 21.6-11.7 31.5-32.7 31.5-11 0-21.7-2.7-28.5-8l6.7-12.1c5 4 13.1 6.6 20.5 6.6 11.9 0 17.1-5.4 17.1-15.9v-2.5c-4.4 4.9-10.8 7.3-18.4 7.3-16.1 0-29-11.1-29-28.1 0-17 12.9-28.1 29-28.1 8.1 0 14.8 2.7 19.3 8.3v-7.4zm-16.7 27.2c0-8.5-6.3-14.3-15.2-14.3-8.9 0-15.3 5.8-15.3 14.3 0 8.5 6.4 14.3 15.3 14.3 8.9 0 15.2-5.8 15.2-14.3z"/><path fill-rule="evenodd" class="b" d="m2056 1687.5h-44c1.7 7.2 7.8 11.7 16.7 11.7 6.1 0 10.6-1.9 14.6-5.7l8.9 9.8c-5.4 6.1-13.5 9.4-23.9 9.4-20.1 0-33.2-12.7-33.2-30 0-17.4 13.3-29.9 31-29.9 17.1 0 30.2 11.5 30.2 30.1 0 1.3-0.2 3.2-0.3 4.6zm-44.2-9.8h28.7c-1.2-7.4-6.7-12.1-14.3-12.1-7.7 0-13.2 4.6-14.4 12.1z"/><path class="b" d="m2151.4 1636.2v45.9l-37.6-45.9h-14.5v75.6h17.3v-45.9l37.7 45.9h14.4v-75.6z"/><path fill-rule="evenodd" class="b" d="m2181.1 1682.7c0-17.5 13.5-29.9 31.9-29.9 18.5 0 31.9 12.4 31.9 29.9 0 17.5-13.4 30-31.9 30-18.4 0-31.9-12.5-31.9-30zm46.7 0c0-10-6.3-16.1-14.8-16.1-8.4 0-14.9 6.1-14.9 16.1 0 10.1 6.5 16.1 14.9 16.1 8.5 0 14.8-6 14.8-16.1z"/><path class="b" d="m2289.1 1697.1c-1.9 1.4-4.3 2.2-6.8 2.2-4.6 0-7.3-2.7-7.3-7.7v-23.7h14.5v-12.9h-14.5v-14.2h-16.8v14.2h-9v12.9h9v23.9c0 13.8 8 20.9 21.7 20.9 5.2 0 10.3-1.2 13.7-3.7z"/><path class="b" d="m2392 1650.2v-14h-57.1v75.6h17.5v-27.6h35v-14h-35v-20z"/><path fill-rule="evenodd" class="b" d="m2396.9 1682.7c0-17.5 13.5-29.9 31.9-29.9 18.5 0 31.9 12.4 31.9 29.9 0 17.5-13.4 30-31.9 30-18.4 0-31.9-12.5-31.9-30zm46.7 0c0-10-6.3-16.1-14.8-16.1-8.4 0-14.9 6.1-14.9 16.1 0 10.1 6.5 16.1 14.9 16.1 8.5 0 14.8-6 14.8-16.1z"/><path class="b" d="m2513.6 1653.7v28.7c0 10.7-5.6 15.7-13.4 15.7-7.4 0-11.7-4.3-11.7-14.1v-30.3h-16.9v32.8c0 17.9 10.3 26.2 24.9 26.2 7.1 0 13.6-2.7 18-7.8v6.9h16v-58.1z"/><path class="b" d="m2581.5 1652.8c-7.9 0-14.7 2.7-19.3 7.7v-6.8h-16.1v58.1h16.9v-28.7c0-10.7 5.8-15.7 13.9-15.7 7.5 0 11.8 4.3 11.8 13.7v30.7h16.8v-33.3c0-17.7-10.3-25.7-24-25.7z"/><path fill-rule="evenodd" class="b" d="m2680.6 1631.6v80.2h-16.1v-6.7c-4.2 5.1-10.4 7.6-18.1 7.6-16.4 0-29.1-11.7-29.1-30 0-18.2 12.7-29.9 29.1-29.9 7.1 0 13.1 2.3 17.4 7v-28.2zm-16.6 51.1c0-10-6.4-16.1-14.8-16.1-8.4 0-14.9 6.1-14.9 16.1 0 10.1 6.5 16.1 14.9 16.1 8.4 0 14.8-6 14.8-16.1z"/></svg>