<svg id="visual" viewBox="0 0 960 540" width="960" height="540" xmlns="http://www.w3.org/2000/svg" xmlns:xlink="http://www.w3.org/1999/xlink" version="1.1"><path d="M224 0L233.2 8.2C242.3 16.3 260.7 32.7 267.7 49C274.7 65.3 270.3 81.7 269.3 98C268.3 114.3 270.7 130.7 271.2 147C271.7 163.3 270.3 179.7 278.3 196C286.3 212.3 303.7 228.7 310.8 245.2C318 261.7 315 278.3 307.3 294.8C299.7 311.3 287.3 327.7 273.2 344C259 360.3 243 376.7 251.3 393C259.7 409.3 292.3 425.7 291.5 442C290.7 458.3 256.3 474.7 245.8 491C235.3 507.3 248.7 523.7 255.3 531.8L262 540L0 540L0 531.8C0 523.7 0 507.3 0 491C0 474.7 0 458.3 0 442C0 425.7 0 409.3 0 393C0 376.7 0 360.3 0 344C0 327.7 0 311.3 0 294.8C0 278.3 0 261.7 0 245.2C0 228.7 0 212.3 0 196C0 179.7 0 163.3 0 147C0 130.7 0 114.3 0 98C0 81.7 0 65.3 0 49C0 32.7 0 16.3 0 8.2L0 0Z" fill="#3694ff"></path><path d="M245 0L246.3 8.2C247.7 16.3 250.3 32.7 248.2 49C246 65.3 239 81.7 243.2 98C247.3 114.3 262.7 130.7 270.8 147C279 163.3 280 179.7 269.3 196C258.7 212.3 236.3 228.7 227.2 245.2C218 261.7 222 278.3 224 294.8C226 311.3 226 327.7 226.3 344C226.7 360.3 227.3 376.7 230.3 393C233.3 409.3 238.7 425.7 237.7 442C236.7 458.3 229.3 474.7 227.7 491C226 507.3 230 523.7 232 531.8L234 540L0 540L0 531.8C0 523.7 0 507.3 0 491C0 474.7 0 458.3 0 442C0 425.7 0 409.3 0 393C0 376.7 0 360.3 0 344C0 327.7 0 311.3 0 294.8C0 278.3 0 261.7 0 245.2C0 228.7 0 212.3 0 196C0 179.7 0 163.3 0 147C0 130.7 0 114.3 0 98C0 81.7 0 65.3 0 49C0 32.7 0 16.3 0 8.2L0 0Z" fill="#338ef6"></path><path d="M238 0L231.3 8.2C224.7 16.3 211.3 32.7 199.2 49C187 65.3 176 81.7 182.2 98C188.3 114.3 211.7 130.7 218.7 147C225.7 163.3 216.3 179.7 207.5 196C198.7 212.3 190.3 228.7 193.3 245.2C196.3 261.7 210.7 278.3 221.7 294.8C232.7 311.3 240.3 327.7 233 344C225.7 360.3 203.3 376.7 200.2 393C197 409.3 213 425.7 226 442C239 458.3 249 474.7 249.7 491C250.3 507.3 241.7 523.7 237.3 531.8L233 540L0 540L0 531.8C0 523.7 0 507.3 0 491C0 474.7 0 458.3 0 442C0 425.7 0 409.3 0 393C0 376.7 0 360.3 0 344C0 327.7 0 311.3 0 294.8C0 278.3 0 261.7 0 245.2C0 228.7 0 212.3 0 196C0 179.7 0 163.3 0 147C0 130.7 0 114.3 0 98C0 81.7 0 65.3 0 49C0 32.7 0 16.3 0 8.2L0 0Z" fill="#3088ec"></path><path d="M199 0L190.3 8.2C181.7 16.3 164.3 32.7 159.3 49C154.3 65.3 161.7 81.7 162.5 98C163.3 114.3 157.7 130.7 163.5 147C169.3 163.3 186.7 179.7 188.8 196C191 212.3 178 228.7 176.8 245.2C175.7 261.7 186.3 278.3 185.2 294.8C184 311.3 171 327.7 164.8 344C158.7 360.3 159.3 376.7 165.8 393C172.3 409.3 184.7 425.7 190 442C195.3 458.3 193.7 474.7 194.7 491C195.7 507.3 199.3 523.7 201.2 531.8L203 540L0 540L0 531.8C0 523.7 0 507.3 0 491C0 474.7 0 458.3 0 442C0 425.7 0 409.3 0 393C0 376.7 0 360.3 0 344C0 327.7 0 311.3 0 294.8C0 278.3 0 261.7 0 245.2C0 228.7 0 212.3 0 196C0 179.7 0 163.3 0 147C0 130.7 0 114.3 0 98C0 81.7 0 65.3 0 49C0 32.7 0 16.3 0 8.2L0 0Z" fill="#2d82e3"></path><path d="M163 0L163.2 8.2C163.3 16.3 163.7 32.7 161.3 49C159 65.3 154 81.7 149.2 98C144.3 114.3 139.7 130.7 138 147C136.3 163.3 137.7 179.7 139.7 196C141.7 212.3 144.3 228.7 141.2 245.2C138 261.7 129 278.3 134.7 294.8C140.3 311.3 160.7 327.7 163 344C165.3 360.3 149.7 376.7 150.3 393C151 409.3 168 425.7 167 442C166 458.3 147 474.7 141 491C135 507.3 142 523.7 145.5 531.8L149 540L0 540L0 531.8C0 523.7 0 507.3 0 491C0 474.7 0 458.3 0 442C0 425.7 0 409.3 0 393C0 376.7 0 360.3 0 344C0 327.7 0 311.3 0 294.8C0 278.3 0 261.7 0 245.2C0 228.7 0 212.3 0 196C0 179.7 0 163.3 0 147C0 130.7 0 114.3 0 98C0 81.7 0 65.3 0 49C0 32.7 0 16.3 0 8.2L0 0Z" fill="#2a7cda"></path><path d="M125 0L122.2 8.2C119.3 16.3 113.7 32.7 115 49C116.3 65.3 124.7 81.7 131 98C137.3 114.3 141.7 130.7 135.7 147C129.7 163.3 113.3 179.7 115.2 196C117 212.3 137 228.7 140.8 245.2C144.7 261.7 132.3 278.3 125 294.8C117.7 311.3 115.3 327.7 120.2 344C125 360.3 137 376.7 140.7 393C144.3 409.3 139.7 425.7 138.2 442C136.7 458.3 138.3 474.7 134.5 491C130.7 507.3 121.3 523.7 116.7 531.8L112 540L0 540L0 531.8C0 523.7 0 507.3 0 491C0 474.7 0 458.3 0 442C0 425.7 0 409.3 0 393C0 376.7 0 360.3 0 344C0 327.7 0 311.3 0 294.8C0 278.3 0 261.7 0 245.2C0 228.7 0 212.3 0 196C0 179.7 0 163.3 0 147C0 130.7 0 114.3 0 98C0 81.7 0 65.3 0 49C0 32.7 0 16.3 0 8.2L0 0Z" fill="#2776d1"></path><path d="M98 0L100.2 8.2C102.3 16.3 106.7 32.7 103 49C99.3 65.3 87.7 81.7 87.8 98C88 114.3 100 130.7 100 147C100 163.3 88 179.7 86.2 196C84.3 212.3 92.7 228.7 93.8 245.2C95 261.7 89 278.3 91.5 294.8C94 311.3 105 327.7 107.3 344C109.7 360.3 103.3 376.7 98.8 393C94.3 409.3 91.7 425.7 91.7 442C91.7 458.3 94.3 474.7 96.2 491C98 507.3 99 523.7 99.5 531.8L100 540L0 540L0 531.8C0 523.7 0 507.3 0 491C0 474.7 0 458.3 0 442C0 425.7 0 409.3 0 393C0 376.7 0 360.3 0 344C0 327.7 0 311.3 0 294.8C0 278.3 0 261.7 0 245.2C0 228.7 0 212.3 0 196C0 179.7 0 163.3 0 147C0 130.7 0 114.3 0 98C0 81.7 0 65.3 0 49C0 32.7 0 16.3 0 8.2L0 0Z" fill="#2370c8"></path><path d="M65 0L66 8.2C67 16.3 69 32.7 67 49C65 65.3 59 81.7 57.5 98C56 114.3 59 130.7 62.8 147C66.7 163.3 71.3 179.7 72.2 196C73 212.3 70 228.7 70.2 245.2C70.3 261.7 73.7 278.3 77.8 294.8C82 311.3 87 327.7 84 344C81 360.3 70 376.7 63.3 393C56.7 409.3 54.3 425.7 56.8 442C59.3 458.3 66.7 474.7 69.2 491C71.7 507.3 69.3 523.7 68.2 531.8L67 540L0 540L0 531.8C0 523.7 0 507.3 0 491C0 474.7 0 458.3 0 442C0 425.7 0 409.3 0 393C0 376.7 0 360.3 0 344C0 327.7 0 311.3 0 294.8C0 278.3 0 261.7 0 245.2C0 228.7 0 212.3 0 196C0 179.7 0 163.3 0 147C0 130.7 0 114.3 0 98C0 81.7 0 65.3 0 49C0 32.7 0 16.3 0 8.2L0 0Z" fill="#206abf"></path><path d="M36 0L37 8.2C38 16.3 40 32.7 39.8 49C39.7 65.3 37.3 81.7 36.2 98C35 114.3 35 130.7 37.3 147C39.7 163.3 44.3 179.7 43.7 196C43 212.3 37 228.7 36.3 245.2C35.7 261.7 40.3 278.3 44.5 294.8C48.7 311.3 52.3 327.7 48.3 344C44.3 360.3 32.7 376.7 31.8 393C31 409.3 41 425.7 45.7 442C50.3 458.3 49.7 474.7 46.2 491C42.7 507.3 36.3 523.7 33.2 531.8L30 540L0 540L0 531.8C0 523.7 0 507.3 0 491C0 474.7 0 458.3 0 442C0 425.7 0 409.3 0 393C0 376.7 0 360.3 0 344C0 327.7 0 311.3 0 294.8C0 278.3 0 261.7 0 245.2C0 228.7 0 212.3 0 196C0 179.7 0 163.3 0 147C0 130.7 0 114.3 0 98C0 81.7 0 65.3 0 49C0 32.7 0 16.3 0 8.2L0 0Z" fill="#1c64b6"></path></svg>